<?xml version="1.0" encoding="utf-8"?>
<!-- Generator: Adobe Illustrator 19.2.1, SVG Export Plug-In . SVG Version: 6.00 Build 0)  -->
<svg version="1.1" id="Layer_1" xmlns="http://www.w3.org/2000/svg" xmlns:xlink="http://www.w3.org/1999/xlink" x="0px" y="0px"
	 viewBox="0 0 975 3053.3" style="enable-background:new 0 0 975 3053.3;" xml:space="preserve">
<style type="text/css">
	.st0{fill:#4D3D2B;}
	.st1{fill:#442F1A;}
	.st2{fill:#2B1A0E;}
	.st3{fill:#381E0D;}
	.st4{fill:#261508;}
	.st5{fill:none;}
	.st6{fill:#3A2212;}
	.st7{fill:#9B7148;}
	.st8{fill:#A58C72;}
	.st9{fill:#56422F;}
	.st10{fill:#225A6D;}
	.st11{fill:#6B2B45;}
	.st12{fill:#1E547C;}
	.st13{fill:#6D233E;}
	.st14{fill:#631E2D;}
	.st15{fill:#7E2D02;}
	.st16{fill:#7E2D47;}
	.st17{fill:#934B0A;}
	.st18{fill:#895830;}
	.st19{fill:#603222;}
	.st20{fill:#5E4022;}
	.st21{fill:#51462D;}
	.st22{fill:#352C1B;}
	.st23{fill:#1E3F39;}
	.st24{fill:#3E3442;}
	.st25{fill:#2C202D;}
	.st26{opacity:0.15;fill:#542218;enable-background:new    ;}
	.st27{opacity:0.15;fill:#322C33;enable-background:new    ;}
</style>
<g id="Layer_9">
	<title>ground-layers</title>
	<path class="st0" d="M975.1-1h-978l-2.5,384.4c0,0,54.2,7.2,107.5-16.9c0,0,193.9,6,210.1-19.1l102.6-30.9c0,0,37.7-21.4,72-0.9
		c0,0,33.8,6,63.7-27.9c0,0,128.2-10,159-2.5c0,0,140.3,35.5,188.2,11.7l78.5,2.2L975.1-1z"/>
	<path class="st1" d="M-6.4,929V383c16.9,1,33.8,0.7,50.7-0.8c18.2-1.8,48.5-11.1,46.8-39.1c34.1,0.5,70.5,9.9,125.6,9.4
		c46.6-0.4,89.4,7.4,95-5.3c0,0,60.1-19.7,120.1-37.5c13.3-5.4,27.9-7.1,42.1-4.8c22,3.5,32.4,21.1,77.5-22.3c0,0,12.3,8.4,88.2-4.7
		c62.1-10.7,142,4.7,136.9,7.3c-37,19.1,140.6,23.4,119.8-10.3l80.3-1.5l10.9,570.8c0,0-16.2,46.9-119.7-1.9
		c0,0-129.3,12.2-152,18.7c0,0-40,7.3-73.4-11.8c0,0-60.6-24.2-70.6-18.2c0,0-21.2,0-60.5,13c0,0-150.2,15.2-148.6,24.1
		c0,0-31.8,15.1-32.5,15.3c0,0-39.6,9.1-81.7,12.1s-144.9,7.6-141.7,13.5C106.9,909,78.6,931-6.4,929z"/>
	<path class="st2" d="M-4.4,1462v430l96.5,62.8c0,0,41.4,57.7,133.8,32.6c45.1-12.2,45.8-9.9,45.8-9.9S516.3,1936,487,1990
		c0,0-3.1,42.6,46.7,34.5s94.5-23.8,111.7,16.7c0,0,35.2,14.3,52.4-5.2s36.6-4.1,36.6-4.1s33.5,24.5,55.6-1c0,0,39.6-15.8,67.2-17.6
		c27.6-1.8,26.6,3.8,35.3-29c0,0,5.1-22.8,86.1-4.8l-2-580.3c-27.7,1-103-0.3-135,22.3l35.1,30.5l-189.1,10.7l-59,14.8l-4.3,19.4
		c0,0-24.8-26.3-48.9-20c-24.1,6.3-133.7,31.2-141.1,31.1s-23,5.3-20.9-17.1c0,0-63.1-35.9-151.3-16.4S-4.4,1462-4.4,1462z"/>
	<path class="st3" d="M-4.5,1892l2.5,514.7c0,0,95.7-1,105.9-16.6c0,0,38.8-15.3,120-14.7s117.9-18.9,117.9-18.9
		s15.6-11.8,66.6-14.1c0,0,34.9-22,90.7-18.2s27.3-26.6,133.6,15.6c0,0,41.2,4.7,79.7-11.8c0,0,191.7-11.5,265.7-5.8l0.4-346.7
		c0,0-77.7-13.2-89.3,8.8s12.2,24.8-48.3,26c0,0-32.1-2.8-67.1,25.4c0,0-10.8,13.1-37.7-7.8c0,0-29.2-28.4-43.9,11.1
		c0,0-12.1-5.9-31.8-3.5s2.3-39.3-12.1-53.9c-28.8-0.2-85.2,9-89-25.6c-79.5-5.8-250.8,14.7-326.8,8.9c0,0,26.2,4.9-13.1,12
		c-135.6,22.5-107.3-28.5-104.8-40.5c-27.7,11.4-30.7-24-30.7-24S53.9,1919-4.5,1892z"/>
	<path class="st4" d="M-2.1,2402.9L-4,3053.3h980.4l1.5-732.7c0,0-255.8-6.8-265.7,5.1s-50,9.5-60.1,5.2s-86.9-40.3-117.9-13.1
		c0,0-19.5,7-38,4c-15.9-2.6-82.9-0.8-76.3,10.2c0,0-27.8,13-45.7,9s-44.1,18-44.1,18s-87,18.8-106.3,12.4s-139,13.4-121.6,16.3
		C102.2,2387.7,60.8,2406.6-2.1,2402.9z"/>
	<path class="st5" d="M976.3,2322.6c0,0-239.6-8.7-276.4,9s-102.7-34.9-149.3-19.9c0,0-7.3,2.7-39.1,10.3s-53.9-5.4-85.7,13.1
		s-56.3-1-85.7,21.5s-221.1,17.6-238.3,33.5s-106.2,16.6-106.2,16.6V2998h981.1L976.3,2322.6z"/>
	<path class="st5" d="M-4.4,2407v-515c0,0,87.1,4.1,74.8,22.1s-27.6-4.5,2.2,25.5s47,18,56.8,37.5s83.3,21,90.7,12
		s12.3-27,51.5-13.5c0,0,254.4-40.5,215.4,10.5c0,0-2.3,42,46.7,34.5s105.3-24,124.9,15c0,0,19.6,15,39.2-4.5
		c19.6-19.5,24.5-7.5,49,3s26.9-1.5,49-13.5s41.6-9,71-12s9.8-27,31.8-34.5s78.2,1.5,78.2,1.5l-0.8,346.7"/>
	<path class="st5" d="M976.3,2074.5l-0.2-675.2c0,0-50.8,9.3-72.8,12.3c-39.8,5.4-37.9,42.6-44,42l-168.9,22.5c0,0-39.2-6-39.2-1.5
		s-19.6,17.8-19.6,22.4s-95.6-21.4-120-13c-25,8.6-124.9,40.1-134.7,23.6s-19.6-34.5-53.9-36S183.4,1484,183.4,1484l-61.6,2.6
		c-71.2,6.3-126.2-2.6-126.2-2.6v591"/>
	<path class="st5" d="M976.3,1519.5l-0.2-675.2c0,0-19,15.3-107.1-2c-68.9-0.3-149.1,1.5-169.1,11.2
		c-36.7,17.7-102.7-34.9-149.2-19.9c0,0-7.3,2.7-39.1,10.3s-142,12.1-171.4,34.6S119.1,896.1,101.9,912S-4.4,928.7-4.4,928.7V1520"
		/>
	<path class="st5" d="M976.3,973.5l-0.2-675.2c0,0-32.7-1.2-75.9-1.8c-12.5-0.2,17.2,27.4-132.5-11.7c-70.5-3.2-196.3-4-217.1,2.7
		c0,0-12.1,19.9-44,27.5s-49-22.6-80.8-4.1s-95.5,20.6-124.9,43.1s-182-4-199.1,12S-4.4,382.7-4.4,382.7V974"/>
	<polyline class="st5" points="974.6,383 974.6,-2 -2.9,-2 -4.4,383 	"/>
	<path class="st6" d="M-6.1,918l2.5,548c0,0,175.6,45.8,205.7,27.4c0,0,190.5-42.9,205.9,15.5c0,0,59.4,7.1,140.2-18.9
		s-23.8,0,77.5,12c23.3-6.4,9.8-12.8,4.3-21.4c0,0,256.7-21.6,255.2-30.3c-1.2-7,13.5-18.1,2.9-19.8c-29.8-4.9,6.2-7-36.7-11.7
		c-10.8-1.2,55.1-9,126.5-14.5l9.6-560.1c0,0-51.4,18.1-81-8.7c0,0-175.1-27.3-173.9-4.6c2,36.9-99.2,19.7-92.2-0.9
		c-85.3-6.1-202.4,6.5-202.4,6.5c12.8,5.6,19.3,10.9,4.9,15.3l-119.3-5.3c3.8,22.4,6.7,36.9-211.7,46.5
		C111.9,893,135.1,914.5-6.1,918z"/>
	<path class="st7" d="M-4.5,137l1.1,19c0,0,18.5-15,85.4,0s44.1,28,143.7,8s94.7,14,178,19s169.8,0,169.8,0s-235.1,5-259.6-34.5
		s-80,20.7-133.9,12.6c0,0-44.1,20.9-80-12.6L-4.5,137z"/>
	<path class="st8" d="M974.6,98v37c0,0,3.5-19-25.9-26s-44,25-156.6,7.5s-140.3-37.5-156.7-13S516.3,102,501.6,118
		c0,0-4.9-15,22.9-14.5S620.8,128,633.8,85c0,0-13.6-5,124.1,14s132,17.7,150-3.6L974.6,98z"/>
	<path class="st8" d="M785.7,91.9c0,0,57,12.3,80,11.7l-40-11.8L785.7,91.9z"/>
	<polygon class="st7" points="233.8,177 269.8,168 295.9,172.5 	"/>
	<polygon class="st7" points="277.9,185.7 295.9,191 325.3,191 301.6,185.2 	"/>
	<path class="st8" d="M-3.3,120v-10.3c0,0,155.5,19.7,237.1,0s130.6-2,129,5.2s-3.2-10.9-66.9,1.1s-155.1,9-155.1,9L-3.3,120z"/>
	<path class="st7" d="M152.2,245.4c0,0,101.2-27,173-11.7s45.7,33.1,119.2,11.7c0,0-36.1,15.6-39.3,20.6s-81.6-41-106.8-28
		c0,0-33.5-9.6-49.8-4.3s-62.7,5.1-80.3,11.7s19.9,6-84.6,2.3L152.2,245.4z"/>
	<path class="st8" d="M-2.4,34v10c0,0,181,26,195.7,9s233.3-17,223.5-2s287.3-10,287.3-10s-251.5,14.8-259.6,5.4S196.2,16,180,34
		S165.6,61-2.4,34z"/>
	<path class="st9" d="M975.1,419c0,0-124.1,13-138.8,0s60.4-28-10.6-24s-198.4,15-198.4,15l238.4-27l13.1,15L851,413
		c0,0,123,11.3,124.1-3s0-76,0-76l-164.9-5c0,0,22.9,15,3.3,17c-19.6,2-161.6-27-205.7-17s-47.3,51-71.8,34s-104.5-4-104.5-4
		s98-9,88.2,9l62,7.8c0,0-21-29.5,26.1-38.8s218,20,218,20l15.5-17l122.4-1"/>
	<path class="st0" d="M-4.4,428c0,0,79.8-14.4,101-3.2S72.2,456,111.4,452s60.4,18,68.6-15.5s62.1-11.7,62.1-11.7
		s-70.2-11.5-39.2,11.9L186.5,460c0,0-63.3-4-67.6,4l-35.3-9c0,0,35.1-43-47.5-25c-22.8,5-40.5,10.9-40.5,10.9L-4.4,428z"/>
	<path class="st10" d="M973.6,488c0,0-100.5-2-175.6,0c0,0,70.6,46,0.4,52s-190.8,0-190.8,0s99.7,43,26.2,37l-73.4-6
		c0,0,106.1,14,119.2,26c0,0-34.3-53-9.8-46c0,0,156.7-13,173.1,0c0,0-22.8-50.5,0-49.5c0,0,81.6-16.5,117.5-3.5h13.2L973.6,488
		L973.6,488z"/>
	<path class="st0" d="M-6.1,487.1c0,0,34.3,13.1,80,0s112.7-25.5,124.1-11.8s-3.3,37.7,57.1,26.7s143.7-8,143.7-8
		s-124.1,1.6-120.8,10.8l-81.6,4.2c0,0,6.5-37-26.1-26c0,0-11.4-11.8-51.4,4.1c0,0-64.5,3.9-62.8,13.9H-4.5L-6.1,487.1z"/>
	<path class="st10" d="M-4.2,524c0,0,76.4-19,96,0s112.7,18.1,112.7,18.1l91.4-13.2c0,0,4.9,19.2,37.5,19.2s106.2-5.9,106.2-5.9
		l-107.8,17.9c0,0-42.5-24.4-47.3-22.2S196.3,549,196.3,549L86.9,537.7c0,0,6.5-20.7-37.5-14.7s-55.5,14.7-55.5,14.7L-4.2,524z"/>
	<path class="st10" d="M740.2,597c0,0,63.5,9.5,96.2-6.5s29.8-15.5,84.8-15.5h55.5l-1.6,12.3c0,0-37.5-16.5-91.5-0.3
		c0,0-13.1-16.9-35.9,10.1C847.7,597.1,784.6,610,740.2,597z"/>
	<path class="st9" d="M890.1,407h60.5c0,0,16.3-52,0-53s-63.7-18-60.4,0l-0.2,20.7c0,0-3.1-28.7,18.1-20.7c0,0,32.7-3,34.3,10
		s0,37,0,37l-45.7,1c0,0,4.9-19.2,14.7-17.6c5.6,0.7,10.3,4.4,12.5,9.6l7.1-19.3l-32.7,9.7L890.1,407z"/>
	<path class="st11" d="M991.5,800c0,0-202.6-31-240.1-7s-66.9,39.8-78.4,18.9s-109.4-28-109.4-28S664.9,789,671.4,794
		s-1.6,23.8,19.6,17.9s86.6-37.9,86.6-37.9l164.2,13L991.5,800z"/>
	<path class="st11" d="M-9.4,888c0,0,55.5,11.1,96.3-18l174.7-12l44.1-27.4c0,0,39.2-13.8,57.1-9.7c0,0-21.2-4.8-40.8-7.8
		l-29.4,17.5l-31,21L86.9,864c0,0-47.3,33-96.3,16C-9.4,880-9.4,888-9.4,888z"/>
	<path class="st12" d="M-4.5,707c0,0,146.9-35,246.5-5s160,8,174.7,5s99.6-3.3,99.6-3.3s-76.7,5.3-84.9,8.3s-89.8,12-89.8,12
		l-107.7-17.1c0,0-115.9-28.9-115.1-5.9L-4.5,707z"/>
	<path class="st12" d="M354.7,734.6c0,0,105.7-20.6,131.2-19.6s152.9,14,152.9,14l64.7-4.2l-64.7,9.8c0,0-129-17.6-145.3-10.6h-29.4
		L354.7,734.6z"/>
	<path class="st12" d="M366.1,742c0,0,57.1-11,112.6,0s81.6-4.9,81.6-4.9S541.8,754,529.1,754s-65.8-8.4-65.8-8.4
		S411.8,735,366.1,742z"/>
	<path class="st7" d="M103.3,191.8c0,0-42.4-40.8-58.7-23.8l-31,17.2V218c0,0,31,12.8,60.3,6.4l29.3-16.1L73.8,218
		c0,0-52.2,9.9-45.7,0l-6.5-29.9c0,0,32.7-27.1,52.3-11.1s-26.1,18-26.1,18L103.3,191.8z"/>
	<path class="st7" d="M36.4,203.4c0,0,3.2,16.1,37.5,4.9l-34.3,11.2C39.6,219.5,33.2,209.8,36.4,203.4z"/>
	<path class="st13" d="M973.6,862v18c0,0-127.4-28-129.1-9s-189.4,14-189.4,14s-22.9,33.1-55.5,28c0,0,45.7-10,40.8-33l179.6-5
		c0,0,21.3-9.2,18-22L973.6,862z"/>
	<path class="st13" d="M805.3,900.1c32.7,2.9,71.8-10.5,66.9-16.8c-4.9-6.3,84.9,8.6,84.9,8.6s-75.1-9.7-75.9-0.8
		S805.3,900.1,805.3,900.1z"/>
	<polygon class="st13" points="663.2,900.1 650.2,906 744.8,903 	"/>
	<path class="st13" d="M973.4,914H865.7c0,0,34.3,17-79.2,15s-146.1,0-146.1,0l226.9,8c0,0,0-17,13.9-17S973.4,914,973.4,914z"/>
	<path class="st14" d="M380.8,1091c0,0,55.5,15,122.4-6s178-9,220.4-9.5c0,0,89.8,0.2,21.2,8.9s176.3,11.4,176.3,11.4l-213.9,0.4
		l26.1-11.8c0,0,66.9-7.4-111-8.9c0,0-111-4.1-112.7,20.7C509.8,1096.2,377.5,1108,380.8,1091z"/>
	<path class="st15" d="M529.1,1095.8c0,0,5.2-25.4,144,4.4C673,1100.2,545.1,1078.6,529.1,1095.8z"/>
	<path class="st15" d="M921.2,1109l-223.7,4c0,0,101.2,26,21.2,27s-275.9,0-275.9,0s429.4,19.4,334.7-15.3l-44.1-4.2L921.2,1109z"/>
	<path class="st15" d="M245.3,1120.5l271-6.5c0,0,13.1,16.4,53.9,13.2s150.2,4.8,150.2,4.8s-143.7-3-160,0s-26.1-14-52.2-12
		L245.3,1120.5z"/>
	<path class="st14" d="M-4.5,1003c0,0,40.8,14,137.1,5s222-1,222-1s32.6,20,78.4,14s96,1.1,96,1.1s-109-3.1-86.2,6.9h-62l-26.1-16
		c0,0-179.6-11-222,3H-6.1L-4.5,1003z"/>
	<path class="st16" d="M20,983c0,0,84.9,23,187.8,0s146.9,24,184.5,20s231.8-7,231.8-7s-285.7,0.3-284.1-19.4L209.4,967
		C209.4,967,193,1001,20,983z"/>
	<path class="st14" d="M640.4,1016c0,0,104.5,21,104.5-5s176.3-16,176.3-16s-155,1.1-161.6,13.6s8.1,19.4-14.8,20.4
		S669.8,1025,640.4,1016z"/>
	<path class="st15" d="M-6.1,1212c0,0,35.9-30,213.9-5.5c0,0-49,30.5,37.6,25.5s258-4,258-4s-254.7,8-267.7,12s-78.4,8-55.5-29
		c0,0-160-15.6-184.5,8.7L-6.1,1212z"/>
	<path class="st15" d="M194.7,1250l50.6-4l300.4-3.5c0,0,75.1,14.5,142,7.5s117.5,8,117.5,8s-81.6-17-117.5,0h-88.1
		c0,0-29.4-12.5-53.9-7.8L194.7,1250z"/>
	<path class="st15" d="M976.7,1278l1.6,22l-197.5-4c0,0-39-1-21.2,31H539.1c0,0,40.8-19,0-18s-96.3-2-96.3-2l135.5-4.5
		c0,0-19.6,12.5-6.5,18.5s173,0,173,0s11.4-32,0-31s212.2,1,212.2,1L976.7,1278z"/>
	<path class="st15" d="M720.4,1309c0,0-117.5,15-120.8,0s24.5-31,24.5-31h73.5l-37.7,24.5c0,0,32.8-29.5-35.8-17.5
		c0,0-45.7,28,16.3,22L720.4,1309z"/>
	<path class="st15" d="M-6.4,1347c0,0,67.1,45,233.6-5l138.8,32c0,0-68.5,24.6-9.8,25.3s199.2,0,199.2,0L322,1406l18-32
		c0,0-88-24.2-119.2-23l-127.5,23l-99.8-4L-6.4,1347L-6.4,1347z"/>
	<path class="st17" d="M42.8,1399h99.6l86.5-33l93.1,16.5l-29.4,23.5h-111c0,0,98-1.4,104.5-6.7c4.7-4.1,9.1-8.5,13.1-13.3
		c0,0-62-19-68.6-12l-75.1,30.3L42.8,1399z"/>
	<polygon class="st17" points="194.7,1399.3 232.2,1386 274.7,1386 	"/>
	<polygon class="st17" points="234.7,1399 274.7,1392.3 261.5,1399 	"/>
	<path class="st17" d="M976.7,1361h-191c0,0,71.8,22,0.8,25s-162.4,0-162.4,0s93.1,9.3,218.8,6.7c0,0-47.3-31.7-14.7-26.7l150.2,8
		L976.7,1361z"/>
	<path class="st15" d="M976.6,1316v11c0,0-148.5-12-163.2,0s45.7,16-68.5,15c0,0,62-1.8,56.3-12.9
		C801.1,1329.1,762.6,1317,976.6,1316z"/>
	<path class="st17" d="M-2.4,1436l324.5-5c0,0-55.5,35,91.4,17l-101.2,14l-18-26l-300.4,10.5L-2.4,1436z"/>
	<path class="st15" d="M555.5,1114c0,0-9.8-20.6,34.3-13.8C589.8,1100.2,519.5,1083.3,555.5,1114z"/>
	<path class="st15" d="M567.5,1114c49-2,64.6-6.5,43.5-13.8C611,1100.2,715,1123,567.5,1114z"/>
	<path class="st0" d="M8.6,464c-41.8-25.9,65.3-33.2,65.3-23.1S21.6,472.1,8.6,464z"/>
	<path class="st1" d="M47.7,447c2,3.9-4.7,8.5-14.8,10.5S13,457.9,11,454s4.6-8.5,14.8-10.5S45.7,443.1,47.7,447z"/>
	<path class="st8" d="M209.4,58.8c0,0-9.8-6.8,16.3-6.8s16.3-14,166.5,0c0,0,31,12-80,12S209.4,58.8,209.4,58.8z"/>
	<path class="st0" d="M374.3,54.8c0,1.1-27,5.9-60.4,5.9s-60.4-4.9-60.4-5.9s27-3.9,60.4-3.9S374.3,53.8,374.3,54.8z"/>
	<path class="st18" d="M978.6,1708c0,0-67.1,45-233.6-5l-138.8,32c0,0,68.5,24.6,9.8,25.3c-58.7,0.7-199.2,0-199.2,0l233.5,6.7
		l-18-32c0,0,88-24.2,119.2-23l127.5,23l99.7-4L978.6,1708L978.6,1708z"/>
	<path class="st15" d="M929.3,1760h-99.6l-86.5-33l-93.1,16.5l29.5,23.5h111c0,0-98-1.4-104.5-6.7c-4.7-4.1-9.1-8.5-13.1-13.3
		c0,0,62-19,68.6-12l75.1,30.3L929.3,1760z"/>
	<polygon class="st15" points="775.9,1760.3 738.3,1747 695.9,1747 	"/>
	<polygon class="st15" points="735.9,1760 695.9,1753.3 709.1,1760 	"/>
	<path class="st19" d="M974.6,1797l-324.5-5c0,0,55.5,35-91.4,17l101.2,14l18-26l300.4,10.5L974.6,1797z"/>
	<path class="st19" d="M560.1,1800.3c0,0,77,9.8,79.1,0s-16-20.3-16-20.3H575l24.7,16c0,0-21.5-19.3,23.4-11.5
		c0,0,29.9,18.3-10.7,14.4L560.1,1800.3z"/>
	<path class="st17" d="M594.7,1601c0,0-55.5,15-122.4-6s-178-9-220.4-9.5c0,0-89.8,0.2-21.2,8.9s-176.3,11.4-176.3,11.4l213.9,0.4
		l-26.1-11.8c0,0-66.9-7.4,111-8.9c0,0,111-4.1,112.6,20.7C465.7,1606.2,597.9,1618,594.7,1601z"/>
	<path class="st17" d="M446.4,1605.8c0,0-5.2-25.4-144,4.4C302.4,1610.2,430.4,1588.6,446.4,1605.8z"/>
	<path class="st17" d="M54.3,1619l223.7,4c0,0-101.2,26-21.2,27s275.9,0,275.9,0s-429.4,19.4-334.7-15.3l44.1-4.2L54.3,1619z"/>
	<path class="st17" d="M730.2,1630.5l-271-6.5c0,0-13.1,16.4-53.9,13.2s-150.2,4.8-150.2,4.8s143.7-3,160,0s26.1-14,52.2-12
		L730.2,1630.5z"/>
	<path class="st17" d="M420,1624c0,0,9.8-20.6-34.3-13.8C385.7,1610.2,456,1593.3,420,1624z"/>
	<path class="st17" d="M408,1624c-49-2-64.6-6.5-43.5-13.8C364.5,1610.2,260.4,1633,408,1624z"/>
	<path class="st10" d="M209.4,634c0,0,55.5,15,122.4-6s178-9,220.4-9.5c0,0,89.8,0.2,21.2,8.9s176.3,11.4,176.3,11.4l-213.9,0.4
		l26.1-11.8c0,0,66.9-7.4-111-8.9c0,0-111-4.1-112.6,20.7C338.3,639.2,206.1,651,209.4,634z"/>
	<path class="st10" d="M357.6,638.8c0,0,5.2-25.4,144,4.4C501.6,643.2,373.7,621.6,357.6,638.8z"/>
	<path class="st10" d="M384.1,657c0,0-9.8-20.6,34.3-13.8C418.3,643.2,348.1,626.3,384.1,657z"/>
	<path class="st10" d="M396.1,657c49-2,64.6-6.5,43.5-13.8C439.6,643.2,543.6,666,396.1,657z"/>
	<path class="st7" d="M491.8,280.7c0,0-53.2-12.7-114.6,8.7s-166.6,12.9-206.5,14.4c0,0-84.4,2-20.5-7.8s-84.1-7.4-84.1-7.4
		l118.5-4.7l-23.8,11.8c0,0-62.4,8.6,104.9,5.5c0,0,104.6,1.1,104.4-22.3C370.3,279,493.7,264.6,491.8,280.7z"/>
	<path class="st7" d="M352.2,279.9c0,0-3.2,24-135.5-0.5C216.6,279.4,338.2,296.5,352.2,279.9z"/>
	<path class="st7" d="M326.1,263.4c0,0,10.6,19.1-31.3,13.8C294.8,277.3,362,291.4,326.1,263.4z"/>
	<path class="st7" d="M314.8,263.7c-45.9,3.1-60.3,7.7-39.9,14.1C274.9,277.8,175.7,259,314.8,263.7z"/>
	<path class="st7" d="M740.2,238c0,0,63.5,9,96.2-7s29.8-16,84.8-16h55.5l-1.6,12.8c0,0-37.5-16.2-91.4,0c0,0-13.1-16.8-35.9,10.2
		C847.7,238,784.6,251,740.2,238z"/>
	<path class="st18" d="M-6.1,1670c0,0,62-25,137.1,0c0,0-68.6,34,0,46s254.7,3,254.7,3s-233.5,15-269.4,8l-29.4-29l21.2-27
		c0,0-71.8-22-112.7,8L-6.1,1670z"/>
	<path class="st17" d="M978.6,1431c0,0-56-4-56,10v21l-206.8,33l221.7-27c0,0-24.3-33,18.1-30l23,1V1431L978.6,1431z"/>
	<path class="st17" d="M-3,1508c0,0,179.7,7,227,0s91.4-27.8,124.1,3.1s119.2,14.9,119.2,14.9s-22.9,13.3-125.7,4.1
		c0,0,16.3-43.1-66.9-21.1l-40,11L-3,1508z"/>
	<path class="st17" d="M455.9,1544H328.6c0,0-40.8,16-93.9,0H42.8l189.3,7.1c0,0,68.5,19.7,96.7,0L455.9,1544z"/>
	<path class="st17" d="M256.7,1531c0,6.6,26.9,10,40,10s25.3-5.4,25.3-12s-7.3-17-20.4-17S256.7,1524.4,256.7,1531z"/>
	<ellipse class="st2" cx="291.8" cy="1529.9" rx="10.6" ry="3.4"/>
	<path class="st15" d="M11.8,1682.9c0,0,44.1-18,68.6-6l-24.5,24l45.7,36.1h173.1l-168.2,10l-63.7-44l21.2-25L11.8,1682.9z"/>
	<path class="st17" d="M976.7,1504l-289,22.5c0,0,45.7,26.3,0,33.4s-171.4,4.1-171.4,4.1l204.1,6c0,0-9.8-40.2,0-40.1
		S976.7,1504,976.7,1504z"/>
	<path class="st18" d="M929.7,1530.1l-193.7,7l39.8,65.9h163.3l-101.6-36.4l64.1,29.4h-111c0,0-58.8-56.7-0.8-51.8L929.7,1530.1z"/>
	<polygon class="st18" points="938.3,1573.2 867.9,1544.3 788.6,1551.9 788.6,1591 854.2,1591 818.3,1566.8 829.8,1583 800.4,1583 
		801.2,1559.9 863.6,1551.9 	"/>
	<path class="st19" d="M-2.4,1807v16c0,0,159.8-28,213.6,0c0,0-5,47-37.7,52l293.8,3c0,0-275.9-8-263.7-10l28.7-45
		C232.4,1823,188.6,1795-2.4,1807z"/>
	<path class="st19" d="M256.7,1888h235.1c0,0,86.5,6,24.5-34h153.5c0,0,52.2,4,40.8-13h153.5l-143.4,6v18l-187.9-6l26.1,34.3
		L256.7,1888z"/>
	<path class="st19" d="M42.8,1827c0,0,199.2-37,127.3,36C170.2,1863,229,1806,42.8,1827z"/>
	<polygon class="st19" points="234.7,1851 249.4,1846 338.3,1863 249.4,1857.5 	"/>
	<path class="st19" d="M584.9,1897c-25.4-21.3,0-25.2,55.5-19C640.4,1878,503.4,1850,584.9,1897z"/>
	<path class="st20" d="M908.1,1870c0-2-151.8,0-151.8,0s76.7,23.6,12.2,23.3s-129.1-1.3-129.1-1.3s107.1,33,10.8,33h53.9
		c0,0-32.7-31,6.5-28h115.9c0,0-62-24-8.2-22L908.1,1870z"/>
	<polygon class="st19" points="268.1,1897.1 555.5,1903 594.7,1916 544.1,1916 	"/>
	<path class="st20" d="M978.6,1990.8c0,0-76.9-0.9-75.2,11.1s12.8,24.1,12.8,24.1s-55.5,9-83.5,0.1v38c0,0-51.4-5-59-5
		s77.3,14,77.3,14s-29.3-41,1.7-41h86.5c0,0-48.8-33-9.7-32s49.1,6,49.1,6L978.6,1990.8L978.6,1990.8z"/>
	<path class="st20" d="M153.9,2064.5c0,0,70.2,14.5,88.2,0s130.6-48.8,174.7-32.6s-37.1,40.1,70.4,32.6s115.7-21.5,141.8,0
		c26.1,21.5,80,15.5,80,15.5l-50.6,3.8l-55.5-25.3L441.2,2073l-34.3-18.8c0,0,44.1-58.2-143.7,8.3c-8.3,0-12.6,19.2-44.1,12.5l-62-7
		l-52.2,7H64.1l32.7-2L153.9,2064.5z"/>
	<path class="st21" d="M279,2089.3c4.7,5.3,32.4,1.6,61.8-8.3s49.5-22.1,44.8-27.4s-32.4-1.6-61.8,8.3S274.3,2084,279,2089.3z"/>
	<path class="st3" d="M360.7,2061.2c-3-3.3-18.6-1.4-34.9,4.1s-27.1,12.7-24.1,16s18.6,1.4,34.9-4.1S363.7,2064.4,360.7,2061.2z"/>
	<path class="st20" d="M36.3,2017.2l34.3,10.3l72.6-10.3c0,0,71,30.2,124.9-13l118.4-27.2L242,2002.2c0,0-13.1,37.2-98.8,6.5
		l-74.3,13.5L36.3,2017.2z"/>
	<path class="st21" d="M53.9,2084c0,0,81.8,21,192,0c0,0-43.2,32,12.3,32s138.9-32,138.9-32h122.5c0,0-52.2,17,37.5,16.5
		s140.4-0.5,140.4-0.5s-181.2,9-212.2,0.5c0,0,21.2-10.5-6.5-10.5h-81.7c0,0-197.5,66-179.6,7C217.5,2097,73,2102,53.9,2084z"/>
	<path class="st21" d="M957.5,2159.6l-270,0.1c0,0,53.8-30.6,7.4-35.8c-46.4-5.2-31.5-3.3-31.5-3.3l68.7-0.4
		c0,0-22.2,35.2-12.4,34.7C729.5,2154.4,957.5,2159.6,957.5,2159.6z"/>
	<path class="st22" d="M941.5,2240.8l-194,1.3l32.2-67.4l162.9-7l-97.2,40.6l60.6-32l-110.7,4.7c0,0-51.8,62,5.5,54.7L941.5,2240.8z
		"/>
	<polygon class="st21" points="950.6,2051.2 956.8,2087.3 876.9,2083 888.4,2043.4 937.6,2041.2 904.6,2066.9 914.1,2050.3 
		894.1,2047.1 882.1,2077.8 951.4,2079.8 	"/>
	<path class="st21" d="M37,2113c0-2,151.8,0,151.8,0s-76.7,23.6-12.2,23.3s129.1-1.3,129.1-1.3s-107.1,33-10.8,33H241
		c0,0,32.6-31-6.5-28H118.6c0,0,62-24,8.2-22L37,2113z"/>
	<path class="st22" d="M966.9,2268l-50.6-4l-300.4-3.5c0,0-75.1,14.5-142,7.5s-117.5,8-117.5,8s81.6-17,117.5,0h88.2
		c0,0,29.4-12.5,53.9-7.8L966.9,2268z"/>
	<path class="st21" d="M21.6,2212c0,0,146.9-35,246.5-5s160,8,174.7,5s99.6-3.3,99.6-3.3s-76.7,5.3-84.9,8.3s-89.8,12-89.8,12
		l-107.8-17.1c0,0-115.9-28.9-115.1-5.9L21.6,2212z"/>
	<path class="st21" d="M380.8,2239.6c0,0,105.7-20.6,131.2-19.6s152.9,14,152.9,14l64.7-4.2l-64.7,9.8c0,0-129-17.6-145.3-10.6
		h-29.4L380.8,2239.6z"/>
	<path class="st21" d="M392.2,2247c0,0,57.1-11,112.7,0s81.6-4.9,81.6-4.9s-18.6,16.9-31.3,16.9s-65.8-8.4-65.8-8.4
		S437.9,2240,392.2,2247z"/>
	<path class="st22" d="M-4,2334c0,0,124.1,13,138.8,0s-60.4-28,10.6-24s198.4,15,198.4,15l-238.4-27l-13.1,15l27.8,15
		c0,0-123,11.3-124.1-3s0-76,0-76l164.9-5l-31,11l-122.4-1"/>
	<path class="st23" d="M952.3,2356c0,0-202.6-31-240.1-7s-66.9,39.8-78.4,18.9s-109.4-28-109.4-28s101.2,5.1,107.8,10.1
		s-1.6,23.8,19.6,17.9s86.6-37.9,86.6-37.9l164.2,13L952.3,2356z"/>
	<path class="st24" d="M-4.4,2729c0,0,66.9,45,233.4-5l138.7,32c0,0-68.6,24.6-9.8,25.3s199.2,0,199.2,0l-233.5,6.7l18-32
		c0,0-88-24.2-119.2-23l-127.3,23l-99.5-4L-4.4,2729L-4.4,2729z"/>
	<path class="st23" d="M534.3,2598h99.6l86.5-33l93.1,16.5l-29.4,23.5h-111c0,0,98-1.4,104.5-6.7c4.7-4.1,9.1-8.5,13.1-13.3
		c0,0-62-19-68.6-12l-75.1,30.3L534.3,2598z"/>
	<polygon class="st23" points="687.7,2598.3 725.3,2585 767.7,2585 	"/>
	<polygon class="st23" points="727.7,2598 767.7,2591.4 754.5,2598 	"/>
	<path class="st24" d="M-0.8,2818l324.4-5c0,0-55.5,35,91.4,17l-101.2,14l-18-26l-300.3,10.5L-0.8,2818z"/>
	<path class="st24" d="M413.7,2821.3c0,0-77,9.8-79.1,0s16-20.3,16-20.3h48.1l-24.7,16c0,0,21.5-19.3-23.4-11.5
		c0,0-29.9,18.3,10.7,14.4L413.7,2821.3z"/>
	<path class="st23" d="M232.2,2475h235.1c0,0,86.5,6,24.5-34h153.5c0,0,52.2,4,40.8-13h153.5l-143.9,6v18l-187.6-6l26.2,34.3
		L232.2,2475z"/>
	<path class="st23" d="M560.4,2484c-25.4-21.3,0-25.2,55.5-19C615.9,2465,478.9,2437,560.4,2484z"/>
	<path class="st23" d="M883.6,2457c0-2-151.8,0-151.8,0s76.7,23.6,12.2,23.3s-129.1-1.3-129.1-1.3s107.1,33,10.8,33h53.9
		c0,0-32.7-31,6.5-28H802c0,0-62-24-8.2-22L883.6,2457z"/>
	<polygon class="st23" points="54.3,2595.1 341.6,2601 380.8,2614 330.2,2614 	"/>
	<path class="st24" d="M413.4,2805c0,0,146.9-35,246.5-5s160,8,174.7,5s99.6-3.3,99.6-3.3s-76.7,5.3-84.9,8.3s-89.8,12-89.8,12
		l-107.8-17.1c0,0-115.9-28.9-115.1-5.9L413.4,2805z"/>
	<polygon class="st24" points="291,2766.2 297.2,2802.3 217.4,2798 228.8,2758.4 278.1,2756.2 245,2781.9 254.5,2765.3 
		234.5,2762.1 222.5,2792.8 291.9,2794.8 	"/>
	<path class="st23" d="M978.6,2604v18c0,0-127.5-28-129.1-9S660,2627,660,2627s-22.9,33.1-55.5,28c0,0,45.7-9.9,40.8-33l179.6-5
		c0,0,21.3-9.2,18.1-22L978.6,2604z"/>
	<path class="st23" d="M810.2,2676.1c32.7,2.9,71.8-10.5,66.9-16.8c-4.9-6.3,84.9,8.6,84.9,8.6s-75.1-9.7-75.9-0.8
		S810.2,2676.1,810.2,2676.1z"/>
	<polygon class="st23" points="668.1,2676.1 655.1,2682 749.8,2679 	"/>
	<path class="st23" d="M868.9,2378H761.2c0,0,34.3,17-79.2,15s-146.1,0-146.1,0l226.9,8c0,0,0-17,13.9-17S868.9,2378,868.9,2378z"/>
	<path class="st23" d="M-2.4,2684v37c0,0-3.6-19,25.8-26s43.9,25,156.6,7.5s140.3-37.4,156.6-13s119.1-1.5,133.8,14.5
		c0,0,4.9-15-22.9-14.5s-96.3,24.5-109.4-18.5c0,0,13.6-5-124.1,14s-131.9,17.7-149.9-3.6L-2.4,2684z"/>
	<path class="st23" d="M186.3,2674.9c0,0-57,12.3-80,11.7l40-11.8L186.3,2674.9z"/>
	<path class="st25" d="M960.4,2929c0,0-35.9-30-213.9-5.5c0,0,49,30.5-37.5,25.5s-258-4-258-4s254.7,8,267.7,12s78.4,8,55.5-29
		c0,0,160-15.6,184.5,8.7L960.4,2929z"/>
	<path class="st25" d="M759.6,2967l-50.6-4l-300.4-3.5c0,0-75.1,14.5-142,7.5s-117.6,8-117.6,8s81.6-17,117.6,0h88.2
		c0,0,29.4-12.5,53.9-7.8L759.6,2967z"/>
	<path class="st24" d="M943.4,2863.6c0,0-105.7-20.6-131.2-19.6s-152.8,14-152.8,14l-64.7-4.2l64.7,9.8c0,0,129-17.6,145.3-10.6
		h29.4L943.4,2863.6z"/>
	<path class="st23" d="M231.6,2481c0,0-57.1-11-112.6,0s-81.6-4.9-81.6-4.9S56,2493,68.7,2493s65.8-8.4,65.8-8.4
		S185.9,2474,231.6,2481z"/>
	<path class="st25" d="M-2.4,2900c0,0,79.6-14.4,100.8-3.2s-24.5,31.2,14.7,27.2s60.4,18,68.5-15.5s62-11.7,62-11.7
		s-70.2-11.5-39.2,11.9l-16.3,23.4c0,0-63.3-4-67.6,4l-35.3-9c0,0,35.3-43-47.3-25c-22.8,5-40.4,10.9-40.4,10.9L-2.4,2900L-2.4,2900
		z"/>
	<path class="st24" d="M10.2,2936c-41.8-25.9,65.3-33.2,65.3-23.1S23.3,2944.1,10.2,2936z"/>
	<path class="st4" d="M49.3,2919c2,3.9-4.7,8.6-14.8,10.5s-19.9,0.4-21.9-3.5s4.6-8.6,14.8-10.5S47.4,2915.1,49.3,2919z"/>
</g>
<g id="Layer_2">
	<rect x="-140.2" y="-75.3" class="st26" width="1206.1" height="3128.7"/>
</g>
<g id="Layer_2_1_">
	<rect x="-140.2" y="-75.3" class="st27" width="1206.1" height="3128.7"/>
</g>
</svg>
